<?xml version="1.0" encoding="UTF-8"?>
<svg version="1.1" xmlns="http://www.w3.org/2000/svg" width="512" height="512">
<path d="M0 0 C8.59411329 6.26312674 15.8374397 14.2429022 23.2878418 21.78344727 C24.73984727 23.24550122 26.19231739 24.70709388 27.64526367 26.16821289 C31.17734001 29.72215776 34.70305525 33.28230066 38.2253418 36.84594727 C43.35781458 32.55542045 48.13976851 28.05331981 52.83862305 23.29516602 C53.5342485 22.59575394 54.22987396 21.89634186 54.94657898 21.17573547 C57.14612815 18.964068 59.34237822 16.74916998 61.5378418 14.53344727 C64.44775227 11.59700554 67.36091769 8.6638501 70.27612305 5.73266602 C70.94380203 5.05668869 71.61148102 4.38071136 72.2993927 3.68424988 C72.91731186 3.0630275 73.53523102 2.44180511 74.171875 1.80175781 C74.71479691 1.25359909 75.25771881 0.70544037 75.8170929 0.14067078 C78.42457431 -2.25660963 80.53024025 -2.36737557 83.9753418 -2.46655273 C84.81581055 -2.50393555 85.6562793 -2.54131836 86.5222168 -2.57983398 C92.12751281 -1.69691886 96.20407301 2.57365427 100.09741211 6.45922852 C101.01145813 7.36697021 101.92550415 8.27471191 102.86724854 9.20996094 C103.84624355 10.19253511 104.8249768 11.17537017 105.8034668 12.15844727 C106.82113986 13.17477126 107.8391095 14.19079836 108.85736084 15.20654297 C110.98198361 17.32822853 113.10297547 19.45346045 115.22143555 21.58129883 C117.93375091 24.30503704 120.65498655 27.01965807 123.37898636 29.73170471 C125.47927227 31.8247589 127.57476573 33.92255895 129.66884613 36.02182007 C130.67049228 37.02479757 131.67361849 38.02629928 132.6782608 39.02627563 C134.08063514 40.42356018 135.47590422 41.82796489 136.87084961 43.23266602 C138.06281952 44.42702271 138.06281952 44.42702271 139.27886963 45.64550781 C143.03446419 49.89111614 143.88736417 53.54321827 143.70509338 59.13415527 C143.15107264 62.2657531 142.32440793 63.39279777 140.17041016 65.68774414 C139.53344208 66.37376709 138.896474 67.05979004 138.24020386 67.76660156 C137.57529938 68.45278564 136.9103949 69.13896973 136.2253418 69.84594727 C135.60966339 70.48508057 134.99398499 71.12421387 134.35964966 71.78271484 C132.43741017 73.74867231 130.49353348 75.69058694 128.54174805 77.62719727 C127.84137924 78.32615112 127.14101044 79.02510498 126.41941833 79.74523926 C124.21125722 81.94786265 121.99962142 84.14695807 119.7878418 86.34594727 C118.27784366 87.85092234 116.7680759 89.35612861 115.25854492 90.86157227 C111.58346539 94.52570556 107.90526824 98.18668207 104.2253418 101.84594727 C108.23588861 106.68279594 112.45882458 111.16165457 116.97924805 115.52172852 C118.25914474 116.77437115 119.53842287 118.02764606 120.81713867 119.28149414 C122.80138577 121.2226001 124.78901977 123.15958267 126.78759766 125.0859375 C141.01825158 138.82593965 141.01825158 138.82593965 144.2253418 147.84594727 C144.65073242 148.85399414 145.07612305 149.86204102 145.5144043 150.90063477 C148.12403555 161.71196425 147.33271293 174.95974934 142.2253418 184.84594727 C138.59554014 190.5400911 134.37032848 195.77345393 128.2253418 198.84594727 C122.11848951 199.35485162 119.09574408 198.92349336 114.2253418 194.84594727 C110.79082267 191.01984401 110.77594308 188.21818914 110.9362793 183.24047852 C111.31422511 180.10965712 112.29592506 178.32662593 114.2253418 175.84594727 C118.28785836 170.34960133 119.62557621 166.38135124 118.8503418 159.53344727 C115.49871093 149.55739338 103.65418626 141.12572562 96.26733398 133.74267578 C95.09167128 132.56401361 93.91621125 131.38514925 92.74093628 130.20610046 C89.57835227 127.03476107 86.41260677 123.8665967 83.2459631 120.69931149 C81.26484846 118.71748252 79.28444901 116.73494173 77.3042984 114.75214958 C70.38922058 107.82785257 63.47159757 100.90611032 56.55151367 93.98681641 C50.10925877 87.54516419 43.67262501 81.09793244 37.2385509 74.64810997 C31.70050312 69.0969921 26.15861236 63.54973084 20.61370587 58.00546402 C17.3076112 54.69962411 14.00308279 51.39225512 10.70241547 48.08099556 C7.60415944 44.97306537 4.50114811 41.86996337 1.39441299 38.77050972 C0.25628979 37.63343258 -0.88013044 36.49464794 -2.01470566 35.35403061 C-3.56464356 33.79637438 -5.12063564 32.24502428 -6.67828369 30.69508362 C-7.54690662 29.82591592 -8.41552956 28.95674822 -9.3104744 28.0612421 C-13.8813379 23.95204769 -17.58995667 22.16584562 -23.7746582 21.84594727 C-35.02339978 23.11938971 -43.86981517 35.80609463 -51.3996582 43.40844727 C-52.30844727 44.32174805 -53.21723633 45.23504883 -54.15356445 46.17602539 C-56.36293775 48.39702697 -58.56991851 50.62034759 -60.7746582 52.84594727 C-56.64289184 57.77363131 -52.34846053 62.40842308 -47.78477478 66.93589783 C-47.10530637 67.61410397 -46.42583796 68.29231011 -45.72577959 68.99106795 C-43.46441294 71.24708724 -41.19948443 73.49949575 -38.93457031 75.75195312 C-37.30611256 77.3752138 -35.67789927 78.99871975 -34.0499115 80.62245178 C-30.55145871 84.1109857 -27.05155157 87.59805166 -23.55058098 91.08405876 C-18.01290968 96.59861812 -12.48016074 102.11809804 -6.94837952 107.63856506 C-5.05232858 109.53061538 -3.15624361 111.42263159 -1.26014805 113.31463718 C-0.78640906 113.78735695 -0.31267006 114.26007671 0.17542465 114.74712132 C5.55812892 120.118102 10.94191181 125.48800088 16.32617188 130.85742188 C16.81790937 131.34780693 17.30964686 131.83819199 17.81628548 132.3434372 C25.78934416 140.29430348 33.76623412 148.24131743 41.7440886 156.18737119 C49.94803867 164.35889996 58.14609898 172.53630584 66.33945078 180.7184611 C71.83488565 186.20580354 77.33682543 191.68651193 82.84363377 197.16243923 C86.26954015 200.57232315 89.68911537 203.98850127 93.10692406 207.40649986 C94.69055673 208.98771382 96.27676242 210.56635572 97.86574554 212.14219284 C100.03833757 214.29755981 102.20141276 216.46206182 104.36244202 218.62901306 C104.98968251 219.24683291 105.616923 219.86465276 106.26317078 220.50119442 C115.29453101 229.61531958 119.94527759 240.11112863 120.4753418 252.97094727 C120.21501705 268.48630228 112.7460198 280.20595982 101.92260742 290.74560547 C100.47475394 292.15902114 99.05260666 293.59505699 97.6315918 295.03540039 C86.94017575 305.61606282 76.56362366 312.06194917 61.4128418 312.28344727 C40.65562971 312.10921332 28.54339616 299.62689286 14.80737305 285.72094727 C13.45612098 284.36408712 12.10419551 283.0078973 10.75163269 281.65234375 C7.22528536 278.11464306 3.70804838 274.5680225 0.19274902 271.01934814 C-3.40867646 267.38701483 -7.01880678 263.76335503 -10.62817383 260.13891602 C-17.68545946 253.04963442 -24.73313351 245.95088148 -31.7746582 238.84594727 C-37.18979475 243.36363133 -42.21536005 248.14931406 -47.18847656 253.14624023 C-48.40432938 254.36187401 -48.40432938 254.36187401 -49.64474487 255.60206604 C-52.30370987 258.26172361 -54.95912252 260.92489781 -57.61450195 263.58813477 C-59.46515908 265.4406584 -61.31603817 267.2929603 -63.16712952 269.14505005 C-67.52861497 273.50963207 -71.88754707 277.87675479 -76.24554688 282.2448169 C-81.21097491 287.22145832 -86.1792743 292.19522903 -91.14780605 297.16877151 C-101.35993407 307.39132596 -111.56848698 317.6174456 -121.7746582 327.84594727 C-118.0689636 332.26948432 -114.2507893 336.50891144 -110.13989258 340.5625 C-109.61220779 341.08711823 -109.08452301 341.61173645 -108.54084778 342.1522522 C-107.40762938 343.27837954 -106.27328203 344.4033718 -105.13789368 345.52731133 C-103.33509459 347.31252976 -101.53602439 349.10143141 -99.73791504 350.89137268 C-94.62929611 355.97570427 -89.51502471 361.05432142 -84.39624023 366.12841797 C-81.25327741 369.24445438 -78.11532173 372.36546294 -74.9803009 375.4894886 C-73.79259884 376.67102555 -72.60300844 377.85066772 -71.41142273 379.02828789 C-59.75716511 390.54711928 -48.74118267 401.94891445 -48.39428711 419.30322266 C-48.44121194 439.33372754 -57.79824543 450.50974123 -71.59423828 464.28662109 C-82.29590904 474.67753553 -92.71781119 479.95426605 -107.6496582 481.15844727 C-130.12835469 480.47589575 -143.38887357 463.38112559 -158.05639648 448.67773438 C-159.68325159 447.05059678 -161.31032776 445.42368017 -162.93760681 443.79696655 C-167.32961176 439.40524717 -171.71853821 435.0104631 -176.10689783 430.61510158 C-180.7028375 426.01288808 -185.30163092 421.41352797 -189.90011597 416.81385803 C-197.60991132 409.10131304 -205.3179611 401.38702756 -213.0246582 393.67138672 C-220.95804778 385.72879998 -228.89250048 377.78727775 -236.82836914 369.84716797 C-237.31859618 369.35667821 -237.80882321 368.86618845 -238.31390561 368.36083537 C-240.77355376 365.89988206 -243.23322265 363.43894949 -245.69290185 360.97802722 C-266.05670375 340.60388037 -286.41684107 320.22607403 -306.7746582 299.84594727 C-307.88634153 300.79237791 -308.99710352 301.73989083 -310.10748291 302.68785095 C-310.7261385 303.21537932 -311.34479408 303.7429077 -311.98219681 304.28642178 C-316.37009126 308.10409576 -320.41270546 312.29934609 -324.5246582 316.40844727 C-325.47898524 317.3506059 -326.4334117 318.29266385 -327.38793945 319.23461914 C-328.29415039 320.13889648 -329.20036133 321.04317383 -330.1340332 321.97485352 C-330.95355469 322.79026611 -331.77307617 323.60567871 -332.61743164 324.44580078 C-336.67375085 328.95889201 -338.57059852 332.72415679 -338.7746582 338.84594727 C-337.66429393 348.32323454 -330.13527996 354.33060925 -323.73510742 360.66186523 C-322.47710243 361.92800887 -321.22037559 363.19542352 -319.96482849 364.46400452 C-316.5631479 367.8929586 -313.14285694 371.3027565 -309.71800756 374.70855093 C-306.12974773 378.2815796 -302.55619611 381.86927093 -298.98025513 385.45462036 C-292.9735797 391.47219987 -286.95439137 397.47704508 -280.92797852 403.47485352 C-273.96900588 410.40117509 -267.03191201 417.34884676 -260.10578716 424.30800331 C-254.14980276 430.291249 -248.1821633 436.26268084 -242.20469487 442.22446358 C-238.63848383 445.78133888 -235.07640674 449.34209994 -231.52480698 452.9135704 C-228.1845085 456.27124985 -224.82977889 459.61381907 -221.4635334 462.94547844 C-220.23333181 464.16777242 -219.00815932 465.39515302 -217.78856087 466.62802696 C-209.22601296 475.74443682 -209.22601296 475.74443682 -197.7746582 479.84594727 C-191.18674138 479.39908044 -187.54450049 477.27508653 -182.7746582 472.84594727 C-177.3735046 471.04556273 -172.55755 470.98751788 -167.3996582 473.47094727 C-163.42816732 477.06420093 -161.99964343 480.04606544 -161.3371582 485.34594727 C-162.13760765 491.74954285 -166.04489378 495.53874639 -170.8527832 499.46313477 C-181.65946467 507.23867387 -193.90610031 507.96910309 -206.7746582 506.84594727 C-223.5164833 503.46298376 -235.86086771 487.92372397 -247.3996582 476.28344727 C-248.41374266 475.26432972 -249.42806445 474.24544828 -250.44262695 473.22680664 C-252.88936655 470.76922315 -255.33292364 468.30850481 -257.7746582 465.84594727 C-260.90376239 467.23328167 -263.01005749 468.84067401 -265.40991211 471.27001953 C-266.10388092 471.9673671 -266.79784973 472.66471466 -267.5128479 473.38319397 C-268.62084244 474.51137794 -268.62084244 474.51137794 -269.7512207 475.66235352 C-270.51767914 476.43401352 -271.28413757 477.20567352 -272.07382202 478.00071716 C-274.52055998 480.46526414 -276.96050714 482.93639312 -279.3996582 485.40844727 C-281.84681113 487.88319064 -284.29539398 490.35647521 -286.74691772 492.82688904 C-288.27215539 494.36441226 -289.79471238 495.90460014 -291.31436157 497.44764709 C-292.00202606 498.1418425 -292.68969055 498.8360379 -293.39819336 499.55126953 C-294.00345856 500.16478775 -294.60872375 500.77830597 -295.23233032 501.41041565 C-297.91064347 503.90327288 -299.9572818 504.05575007 -303.5246582 504.15844727 C-304.36512695 504.19583008 -305.2055957 504.23321289 -306.0715332 504.27172852 C-311.67682922 503.38881339 -315.75338941 499.11824026 -319.64672852 495.23266602 C-320.56077454 494.32492432 -321.47482056 493.41718262 -322.41656494 492.48193359 C-323.39555996 491.49935942 -324.37429321 490.51652437 -325.3527832 489.53344727 C-326.37045626 488.51712327 -327.3884259 487.50109618 -328.40667725 486.48535156 C-330.53130001 484.363666 -332.65229188 482.23843408 -334.77075195 480.1105957 C-337.48306732 477.38685749 -340.20430296 474.67223646 -342.92830276 471.96018982 C-345.02858868 469.86713563 -347.12408213 467.76933558 -349.21816254 465.67007446 C-350.21980869 464.66709696 -351.2229349 463.66559525 -352.22757721 462.6656189 C-353.62995155 461.26833435 -355.02522063 459.86392964 -356.42016602 458.45922852 C-357.21481262 457.66299072 -358.00945923 456.86675293 -358.82818604 456.04638672 C-362.58485881 451.7995595 -363.46551007 448.13100648 -363.22875977 442.53271484 C-362.72649563 439.56098537 -362.15166761 438.57927185 -360.13012695 436.40454102 C-359.49518311 435.72020996 -358.86023926 435.03587891 -358.20605469 434.33081055 C-352.07141853 428.06127276 -345.8352128 421.89488715 -339.5793457 415.74658203 C-337.69732063 413.89479699 -335.82159902 412.03680626 -333.9465332 410.17797852 C-333.37151062 409.61641556 -332.79648804 409.0548526 -332.20404053 408.47627258 C-329.18333985 405.47455099 -326.78893824 402.6498648 -324.7746582 398.84594727 C-325.48750977 398.14469727 -326.20036133 397.44344727 -326.93481445 396.72094727 C-327.90240143 395.76275434 -328.86984133 394.80441287 -329.8371582 393.84594727 C-330.3031543 393.38833008 -330.76915039 392.93071289 -331.24926758 392.45922852 C-334.00457142 389.72266824 -336.60864718 386.9106168 -339.13793945 383.96313477 C-341.57521071 381.14536407 -344.09585424 378.49742388 -346.7824707 375.91625977 C-347.45922852 375.2652832 -348.13598633 374.61430664 -348.83325195 373.94360352 C-350.21106473 372.6283002 -351.59653051 371.3209673 -352.98950195 370.02172852 C-358.00707444 365.15765729 -361.07257308 360.27805505 -363.7746582 353.84594727 C-364.20004883 352.83790039 -364.62543945 351.82985352 -365.0637207 350.79125977 C-367.62873101 340.16478851 -367.06885931 326.47900493 -361.7746582 316.84594727 C-355.9972227 308.1607855 -348.22483143 301.06908878 -340.8371582 293.78344727 C-339.56781091 292.52415228 -338.2989269 291.26439013 -337.03051758 290.00415039 C-333.95054379 286.946006 -330.86437688 283.89424453 -327.7746582 280.84594727 C-329.20985523 277.90066335 -330.80422161 275.32373274 -332.7121582 272.65844727 C-339.03677195 263.27950786 -341.10804544 252.11746809 -339.3137207 240.98657227 C-336.57141412 228.53327416 -330.54472728 219.78122301 -321.47192383 210.94628906 C-320.02407035 209.53287339 -318.60192306 208.09683754 -317.1809082 206.65649414 C-306.48771042 196.07406843 -296.11394381 189.63314934 -280.9621582 189.40844727 C-257.81179106 189.56053344 -244.24244528 206.20934975 -228.9855957 221.53735352 C-227.78941533 222.735404 -226.59301025 223.93323017 -225.39639282 225.13084412 C-222.28058292 228.25043255 -219.16779042 231.37301426 -216.05566406 234.49627686 C-212.8661926 237.69606396 -209.67381109 240.892945 -206.48168945 244.09008789 C-200.24319629 250.33923588 -194.00789483 256.59155614 -187.7746582 262.84594727 C-182.35952166 258.3282632 -177.33395636 253.54258047 -172.36083984 248.5456543 C-171.14498703 247.33002052 -171.14498703 247.33002052 -169.90457153 246.08982849 C-167.24560653 243.43017093 -164.59019389 240.76699672 -161.93481445 238.10375977 C-160.08415733 236.25123613 -158.23327823 234.39893423 -156.38218689 232.54684448 C-152.02070143 228.18226246 -147.66176934 223.81513974 -143.30376953 219.44707763 C-138.33834149 214.47043621 -133.3700421 209.4966655 -128.40151036 204.52312303 C-118.18938233 194.30056857 -107.98082943 184.07444894 -97.7746582 173.84594727 C-101.50382505 169.39078519 -105.34284493 165.14175586 -109.48535156 161.06933594 C-110.02118362 160.53817673 -110.55701569 160.00701752 -111.10908508 159.45976257 C-112.26033243 158.31892806 -113.41268444 157.17920737 -114.56605339 156.04051781 C-116.39890923 154.22992671 -118.22756682 152.41519122 -120.05506897 150.59919739 C-125.24727249 145.44035436 -130.44357635 140.28570066 -135.65039062 135.14160156 C-138.84748585 131.98242418 -142.03699405 128.81574936 -145.22195625 125.64434242 C-146.4274759 124.4468062 -147.63575136 123.25203683 -148.8469677 122.06026268 C-161.43012773 109.67561331 -171.04324316 98.26413797 -171.2746582 79.78344727 C-171.06131402 61.25709949 -160.50793375 49.94831875 -147.95727539 37.40527344 C-141.09728456 30.74045184 -134.92736521 25.81176468 -125.7746582 22.84594727 C-124.93805664 22.57266602 -124.10145508 22.29938477 -123.23950195 22.01782227 C-111.8863205 18.97992122 -99.79143162 21.19149634 -89.5324707 26.72875977 C-86.70435481 28.52618454 -84.26417813 30.60537933 -81.7746582 32.84594727 C-77.4779818 31.20468844 -74.6904558 27.94284205 -71.57543945 24.70141602 C-70.35372317 23.45438809 -69.13170826 22.20765269 -67.90942383 20.96118164 C-66.00108358 19.00343927 -64.09607997 17.04268475 -62.19677734 15.07617188 C-48.73291387 1.16661293 -48.73291387 1.16661293 -40.7746582 -2.15405273 C-40.09145508 -2.47470703 -39.40825195 -2.79536133 -38.7043457 -3.12573242 C-27.49935644 -8.1714938 -10.11419215 -6.57721644 0 0 Z M80.70336914 33.14086914 C79.65086174 34.19369429 78.6038682 35.25204916 77.5612793 36.31469727 C76.73317245 37.14704895 76.73317245 37.14704895 75.88833618 37.99621582 C74.12093851 39.77483536 72.36060897 41.56027319 70.6003418 43.34594727 C69.40548743 44.55082884 68.21018063 45.75526193 67.0144043 46.95922852 C64.07943589 49.91628389 61.15078951 52.87947385 58.2253418 55.84594727 C59.80965633 59.75445925 62.49169274 62.36962083 65.4519043 65.26782227 C65.95958344 65.77267151 66.46726257 66.27752075 66.99032593 66.79766846 C68.60568022 68.40186823 70.22786389 69.99895582 71.8503418 71.59594727 C72.94975877 72.68532834 74.04872238 73.77516717 75.1472168 74.86547852 C77.83470199 77.53096611 80.52833201 80.1900987 83.2253418 82.84594727 C87.13385378 81.26163274 89.74901536 78.57959632 92.6472168 75.61938477 C93.40449066 74.85786606 93.40449066 74.85786606 94.17706299 74.08096313 C95.78126276 72.46560885 97.37835036 70.84342517 98.9753418 69.22094727 C100.06472287 68.12153029 101.1545617 67.02256668 102.24487305 65.92407227 C104.91036065 63.23658707 107.56949323 60.54295705 110.2253418 57.84594727 C108.64122274 53.96325776 105.99668542 51.32730361 103.0690918 48.42407227 C102.31468811 47.6667984 102.31468811 47.6667984 101.54504395 46.89422607 C100.48504193 45.8328673 99.42252692 44.77401308 98.35766602 43.7175293 C96.72394134 42.09455602 95.10120886 40.46113658 93.47924805 38.82641602 C92.44733703 37.79582581 91.41480621 36.76585575 90.3815918 35.73657227 C89.89509155 35.24602356 89.40859131 34.75547485 88.90734863 34.25006104 C85.0358453 30.20571057 85.0358453 30.20571057 80.70336914 33.14086914 Z M-129.8371582 57.97094727 C-130.51842773 58.59743164 -131.19969727 59.22391602 -131.90161133 59.86938477 C-137.26365911 64.93783339 -142.76253963 70.56348858 -144.5012207 77.92016602 C-144.46770508 78.78254883 -144.43418945 79.64493164 -144.3996582 80.53344727 C-144.39192383 81.40356445 -144.38418945 82.27368164 -144.3762207 83.17016602 C-142.81951276 90.09448382 -136.91971324 94.98455133 -132.06945801 99.80511475 C-130.8986271 100.98062562 -130.8986271 100.98062562 -129.70414305 102.1798842 C-127.0911091 104.80088648 -124.47099534 107.41469265 -121.85083008 110.02856445 C-119.97456409 111.90754077 -118.09869137 113.78690237 -116.22328186 115.66673279 C-111.66001715 120.23888115 -107.09137364 124.80561781 -102.52076542 129.37042394 C-98.80678793 133.07988201 -95.09477038 136.79129081 -91.38414001 140.50409698 C-90.85574287 141.0328006 -90.32734572 141.56150421 -89.78293654 142.10622914 C-88.70949413 143.18031101 -87.63605621 144.25439736 -86.56262273 145.32848814 C-76.50243692 155.39437394 -66.43613523 165.45412564 -56.36772555 175.51178458 C-47.72726714 184.1433026 -39.09207317 192.78005817 -30.46069336 201.4206543 C-20.4355556 211.45649158 -10.40718598 221.48908105 -0.37362528 231.51649785 C0.69586188 232.58534791 1.76534486 233.65420214 2.83482361 234.72306061 C3.36102587 235.24895432 3.88722813 235.77484803 4.42937592 236.31667791 C8.13885245 240.02442694 11.84600179 243.73449304 15.55226135 247.44545746 C20.06689098 251.96569215 24.58505827 256.48235442 29.1078192 260.99445382 C31.41562082 263.2969945 33.72124244 265.60164513 36.02364922 267.90958214 C38.51789615 270.4092685 41.0181799 272.90275334 43.5201416 275.39471436 C44.24893288 276.12796708 44.97772416 276.8612198 45.72860003 277.6166923 C46.39942598 278.28230276 47.07025193 278.94791322 47.76140594 279.6336937 C48.33793144 280.20989448 48.91445693 280.78609527 49.50845289 281.37975669 C53.03439111 284.39084108 56.00848529 285.15663555 60.6003418 285.22094727 C61.51557617 285.24930664 62.43081055 285.27766602 63.3737793 285.30688477 C71.12541014 284.05388142 76.68074246 276.75748786 81.9753418 271.47094727 C82.83772461 270.63305664 83.70010742 269.79516602 84.58862305 268.93188477 C85.41233398 268.11204102 86.23604492 267.29219727 87.0847168 266.44750977 C87.83205078 265.70839355 88.57938477 264.96927734 89.34936523 264.20776367 C92.36770534 260.40773475 93.65655472 256.3041255 93.2253418 251.47094727 C91.85846005 242.86899729 84.36766803 236.69687424 78.43821716 230.80485535 C77.67299415 230.03651235 76.90777114 229.26816936 76.11935955 228.47654325 C73.57013372 225.91938014 71.01386723 223.36937793 68.45751953 220.81933594 C66.62199148 218.9810962 64.78688881 217.14243161 62.95217896 215.30337524 C58.49579309 210.83812239 54.03404932 206.3782612 49.57032447 201.92034604 C45.94268949 198.29723648 42.31702184 194.672169 38.69273567 191.04570961 C38.17599967 190.52866715 37.65926368 190.01162468 37.12686901 189.47891426 C36.07702341 188.42842919 35.02718229 187.37793964 33.97734559 186.32744566 C24.14698047 176.49138558 14.31050854 166.66145099 4.47191829 156.8336191 C-3.96751384 148.40312969 -12.40167745 139.96739927 -20.83203125 131.52783203 C-30.63049226 121.71866736 -40.43219012 111.91275587 -50.23907512 102.11201268 C-51.28467688 101.06704801 -52.33027447 100.02207916 -53.37586784 98.97710609 C-53.89028298 98.46299951 -54.40469811 97.94889293 -54.93470158 97.41920736 C-58.55756907 93.79806593 -62.17811228 90.17461059 -65.79776192 86.55025291 C-70.66772527 81.67409427 -75.54296577 76.80326568 -80.42181015 71.93599319 C-82.21301072 70.14744077 -84.00250476 68.35717745 -85.7901783 66.56509972 C-88.22703585 64.12279186 -90.66994618 61.6867046 -93.11451721 59.25212097 C-93.82346762 58.53870912 -94.53241802 57.82529727 -95.26285177 57.09026688 C-99.69120596 52.69703177 -103.70613987 48.73858663 -110.1496582 47.97094727 C-110.85864258 47.87040039 -111.56762695 47.76985352 -112.2980957 47.66625977 C-119.84442895 48.21378552 -124.63721896 52.9837553 -129.8371582 57.97094727 Z M-80.41069984 194.23589325 C-81.39240937 195.22036816 -81.39240937 195.22036816 -82.39395142 196.22473145 C-83.52136497 197.34802101 -83.52136497 197.34802101 -84.67155457 198.4940033 C-85.49657974 199.32621902 -86.32160492 200.15843475 -87.17163086 201.01586914 C-88.03999069 201.88393692 -88.90835052 202.7520047 -89.80302429 203.64637756 C-92.18870753 206.03321824 -94.56985663 208.42442161 -96.9491353 210.81763649 C-99.43464322 213.31561775 -101.92578795 215.80796431 -104.41635132 218.30090332 C-109.13416514 223.02494193 -113.84685616 227.75405722 -118.55774724 232.48499823 C-123.92014063 237.86971961 -129.28819079 243.24878639 -134.65673375 248.6273756 C-145.70236751 259.69393396 -156.74084288 270.76760465 -167.7746582 281.84594727 C-165.99092975 285.68906957 -163.5484069 288.33036118 -160.5480957 291.26782227 C-160.04041656 291.77267151 -159.53273743 292.27752075 -159.00967407 292.79766846 C-157.39431978 294.40186823 -155.77213611 295.99895582 -154.1496582 297.59594727 C-153.05024123 298.68532834 -151.95127762 299.77516717 -150.8527832 300.86547852 C-148.16529801 303.53096611 -145.47166799 306.1900987 -142.7746582 308.84594727 C-139.58502515 307.437813 -137.4465848 305.76548059 -134.99078369 303.30258179 C-133.8844886 302.20041069 -133.8844886 302.20041069 -132.75584412 301.07597351 C-131.95671097 300.26964981 -131.15757782 299.46332611 -130.33422852 298.63256836 C-129.48508377 297.78371567 -128.63593903 296.93486298 -127.76106262 296.06028748 C-125.43748701 293.73555805 -123.11840694 291.40645381 -120.80125141 289.07532835 C-118.37716686 286.63873338 -115.94740973 284.20780856 -113.51824951 281.77627563 C-108.92091077 277.17272305 -104.32869367 272.5640964 -99.73829627 267.95362341 C-94.51130027 262.70426547 -89.27861778 257.46059174 -84.04545069 252.21738696 C-73.28218147 241.4332179 -62.52607314 230.64193542 -51.7746582 219.84594727 C-53.55118835 216.02720564 -55.96558624 213.364718 -58.9309082 210.42407227 C-59.43384399 209.91922302 -59.93677979 209.41437378 -60.45495605 208.89422607 C-61.51495807 207.8328673 -62.57747308 206.77401308 -63.64233398 205.7175293 C-65.27605866 204.09455602 -66.89879114 202.46113658 -68.52075195 200.82641602 C-69.55266297 199.79582581 -70.58519379 198.76585575 -71.6184082 197.73657227 C-72.10490845 197.24602356 -72.59140869 196.75547485 -73.09265137 196.25006104 C-76.42750836 192.54103188 -76.42750836 192.54103188 -80.41069984 194.23589325 Z M-301.5246582 230.22094727 C-302.38704102 231.05883789 -303.24942383 231.89672852 -304.13793945 232.76000977 C-304.96165039 233.57985352 -305.78536133 234.39969727 -306.6340332 235.24438477 C-307.75503418 236.35305908 -307.75503418 236.35305908 -308.89868164 237.48413086 C-311.91702175 241.28415978 -313.20587113 245.38776903 -312.7746582 250.22094727 C-311.40777646 258.82289724 -303.91698443 264.99502029 -297.98753357 270.88703918 C-296.83969905 272.03955367 -296.83969905 272.03955367 -295.66867596 273.21535128 C-293.11945012 275.77251439 -290.56318364 278.3225166 -288.00683594 280.87255859 C-286.17130788 282.71079833 -284.33620522 284.54946292 -282.50149536 286.38851929 C-278.0451095 290.85377214 -273.58336573 295.31363333 -269.11964088 299.77154849 C-265.49200589 303.39465805 -261.86633824 307.01972553 -258.24205208 310.64618492 C-257.46694808 311.42174862 -257.46694808 311.42174862 -256.67618542 312.21298027 C-255.62633982 313.26346534 -254.57649869 314.31395489 -253.526662 315.36444887 C-243.69629687 325.20050895 -233.85982495 335.03044355 -224.0212347 344.85827544 C-215.58180257 353.28876485 -207.14763896 361.72449526 -198.71728516 370.1640625 C-188.91882415 379.97322717 -179.11712629 389.77913866 -169.31024128 399.57988185 C-168.26463952 400.62484652 -167.21904193 401.66981537 -166.17344856 402.71478844 C-165.65903343 403.22889502 -165.1446183 403.7430016 -164.61461483 404.27268717 C-160.99174734 407.8938286 -157.37120413 411.51728394 -153.75155449 415.14164162 C-148.88159113 420.01780026 -144.00635064 424.88862885 -139.12750626 429.75590134 C-137.33630568 431.54445376 -135.54681164 433.33471708 -133.75913811 435.12679482 C-131.32228056 437.56910267 -128.87937023 440.00518993 -126.43479919 442.43977356 C-125.72584879 443.15318541 -125.01689838 443.86659726 -124.28646463 444.60162765 C-119.85811045 448.99486276 -115.84317653 452.9533079 -109.3996582 453.72094727 C-108.69067383 453.82149414 -107.98168945 453.92204102 -107.2512207 454.02563477 C-98.40552429 453.38383345 -93.30274243 446.910444 -87.4621582 440.90844727 C-86.5565918 440.0015918 -85.65102539 439.09473633 -84.71801758 438.16040039 C-77.57486526 431.25912582 -77.57486526 431.25912582 -75.4621582 421.97094727 C-75.43702148 420.73731445 -75.43702148 420.73731445 -75.41137695 419.47875977 C-76.41459423 412.20813133 -81.42676008 407.76769124 -86.39083862 402.84881592 C-87.17391612 402.06105845 -87.95699362 401.27330098 -88.76380074 400.46167207 C-91.38906618 397.82444264 -94.02492237 395.1980637 -96.66088867 392.5715332 C-98.54544654 390.68291032 -100.42941148 388.7937124 -102.31268311 386.90380859 C-106.89769576 382.30546399 -111.49077248 377.71525706 -116.08680259 373.12792704 C-119.82170296 369.39980408 -123.55366211 365.66876053 -127.28354263 361.93561554 C-127.81456191 361.40413657 -128.34558118 360.87265759 -128.89269195 360.3250732 C-129.9714494 359.24535657 -131.05020012 358.16563321 -132.12894417 357.0859032 C-142.24161016 346.96468511 -152.36344678 336.85267846 -162.48844709 326.74380139 C-171.17647304 318.06918231 -179.85659787 309.38672228 -188.53100586 300.69848633 C-198.60547644 290.60796344 -208.68479294 280.5223222 -218.77189934 270.44442964 C-219.84731993 269.36996469 -220.92273425 268.29549348 -221.99814224 267.22101593 C-222.79182321 266.4280292 -222.79182321 266.4280292 -223.60153814 265.61902253 C-227.33049415 261.89265718 -231.05595685 258.16282118 -234.78008652 254.431633 C-239.31765647 249.88565192 -243.86052724 245.34504945 -248.41029082 240.81127092 C-250.73162983 238.49781923 -253.04967969 236.181235 -255.36292648 233.85968781 C-257.86992974 231.34451802 -260.38593967 228.83872266 -262.9045105 226.33514404 C-263.634962 225.59800037 -264.36541351 224.8608567 -265.11799991 224.10137534 C-265.79491701 223.43228149 -266.4718341 222.76318763 -267.16926384 222.07381821 C-267.74898945 221.49457966 -268.32871505 220.91534111 -268.92600811 220.31854987 C-272.51158321 217.46234293 -276.19465728 216.54231379 -280.7121582 216.47094727 C-281.52555664 216.44258789 -282.33895508 216.41422852 -283.17700195 216.38500977 C-290.75522097 217.7297163 -296.33730954 225.04149411 -301.5246582 230.22094727 Z M-307.18310547 421.14086914 C-308.238327 422.19624993 -309.29077883 423.25440428 -310.34106445 424.31469727 C-311.17129372 425.14704895 -311.17129372 425.14704895 -312.01829529 425.99621582 C-313.79359871 427.77713744 -315.56540249 429.56149681 -317.3371582 431.34594727 C-318.53679986 432.55060158 -319.73666668 433.75503171 -320.93676758 434.95922852 C-323.88535458 437.91886866 -326.83080647 440.88159737 -329.7746582 443.84594727 C-328.19034367 447.75445925 -325.50830726 450.36962083 -322.5480957 453.26782227 C-322.04041656 453.77267151 -321.53273743 454.27752075 -321.00967407 454.79766846 C-319.39431978 456.40186823 -317.77213611 457.99895582 -316.1496582 459.59594727 C-315.05024123 460.68532834 -313.95127762 461.77516717 -312.8527832 462.86547852 C-310.16529801 465.53096611 -307.47166799 468.1900987 -304.7746582 470.84594727 C-300.86614622 469.26163274 -298.25098464 466.57959632 -295.3527832 463.61938477 C-294.59550934 462.85786606 -294.59550934 462.85786606 -293.82293701 462.08096313 C-292.21873724 460.46560885 -290.62164964 458.84342517 -289.0246582 457.22094727 C-287.93527713 456.12153029 -286.8454383 455.02256668 -285.75512695 453.92407227 C-283.08963935 451.23658707 -280.43050677 448.54295705 -277.7746582 445.84594727 C-282.87305564 439.68221305 -288.42126579 434.04997025 -294.0871582 428.40844727 C-295.00561523 427.48612305 -295.92407227 426.56379883 -296.87036133 425.61352539 C-297.74241211 424.74276367 -298.61446289 423.87200195 -299.51293945 422.97485352 C-300.30740479 422.18151611 -301.10187012 421.38817871 -301.92041016 420.57080078 C-304.691584 417.99300707 -304.28655111 418.38084775 -307.18310547 421.14086914 Z " fill="#000000" transform="translate(365.774658203125,5.154052734375)"/>
</svg>
